<svg id="visual" viewBox="0 0 1920 1080" width="1920" height="1080" xmlns="http://www.w3.org/2000/svg" xmlns:xlink="http://www.w3.org/1999/xlink" version="1.1"><path d="M1132 0L1089.5 30C1047 60 962 120 940.7 180C919.3 240 961.7 300 935.5 360C909.3 420 814.7 480 759.3 540C704 600 688 660 591 720C494 780 316 840 236.2 900C156.3 960 174.7 1020 183.8 1050L193 1080L0 1080L0 1050C0 1020 0 960 0 900C0 840 0 780 0 720C0 660 0 600 0 540C0 480 0 420 0 360C0 300 0 240 0 180C0 120 0 60 0 30L0 0Z" fill="#0066FF" stroke-linecap="round" stroke-linejoin="miter"></path></svg>